<svg xmlns="http://www.w3.org/2000/svg" xmlns:xlink="http://www.w3.org/1999/xlink" contentStyleType="text/css" data-diagram-type="CLASS" height="893px" preserveAspectRatio="none" style="width:510px;height:893px;background:#FFFFFF;" version="1.1" viewBox="0 0 510 893" width="510px" zoomAndPan="magnify"><defs/><g><!--class TaskStatus--><g class="entity" data-entity="TaskStatus" data-source-line="3" data-uid="ent0002" id="entity_TaskStatus"><rect fill="#F1F1F1" height="137.75" rx="2.5" ry="2.5" style="stroke:#181818;stroke-width:0.5;" width="119.752" x="158" y="7"/><ellipse cx="173" cy="27.1328" fill="#ADD1B2" rx="11" ry="11" style="stroke:#181818;stroke-width:1;"/><path d="M175.9688,32.7734 Q175.3906,33.0703 174.75,33.2109 Q174.1094,33.3672 173.4063,33.3672 Q170.9063,33.3672 169.5781,31.7266 Q168.2656,30.0703 168.2656,26.9453 Q168.2656,23.8203 169.5781,22.1641 Q170.9063,20.5078 173.4063,20.5078 Q174.1094,20.5078 174.75,20.6641 Q175.4063,20.8203 175.9688,21.1172 L175.9688,23.8359 Q175.3438,23.2578 174.75,22.9922 Q174.1563,22.7109 173.5313,22.7109 Q172.1875,22.7109 171.5,23.7891 Q170.8125,24.8516 170.8125,26.9453 Q170.8125,29.0391 171.5,30.1172 Q172.1875,31.1797 173.5313,31.1797 Q174.1563,31.1797 174.75,30.9141 Q175.3438,30.6328 175.9688,30.0547 L175.9688,32.7734 Z " fill="#000000"/><text fill="#000000" font-family="sans-serif" font-size="12" font-style="italic" lengthAdjust="spacing" textLength="91.752" x="185" y="23.1387">&#171;enumeration&#187;</text><text fill="#000000" font-family="sans-serif" font-size="14" lengthAdjust="spacing" textLength="77.1436" x="192.3042" y="38.9639">TaskStatus</text><line style="stroke:#181818;stroke-width:0.5;" x1="159" x2="276.752" y1="47.2656" y2="47.2656"/><text fill="#000000" font-family="sans-serif" font-size="14" lengthAdjust="spacing" textLength="63.9912" x="164" y="64.2607">PENDING</text><text fill="#000000" font-family="sans-serif" font-size="14" lengthAdjust="spacing" textLength="66.3701" x="164" y="80.5576">RUNNING</text><text fill="#000000" font-family="sans-serif" font-size="14" lengthAdjust="spacing" textLength="86.1396" x="164" y="96.8545">COMPLETED</text><text fill="#000000" font-family="sans-serif" font-size="14" lengthAdjust="spacing" textLength="83.6719" x="164" y="113.1514">CANCELLED</text><text fill="#000000" font-family="sans-serif" font-size="14" lengthAdjust="spacing" textLength="49.1846" x="164" y="129.4482">FAILED</text><line style="stroke:#181818;stroke-width:0.5;" x1="159" x2="276.752" y1="136.75" y2="136.75"/></g><!--class TaskSignals--><g class="entity" data-entity="TaskSignals" data-source-line="11" data-uid="ent0003" id="entity_TaskSignals"><rect fill="#F1F1F1" height="121.4531" rx="2.5" ry="2.5" style="stroke:#181818;stroke-width:0.5;" width="116.1113" x="307" y="765"/><ellipse cx="322.5761" cy="785.1328" fill="#ADD1B2" rx="11" ry="11" style="stroke:#181818;stroke-width:1;"/><path d="M325.5449,790.7734 Q324.9667,791.0703 324.3261,791.2109 Q323.6855,791.3672 322.9824,791.3672 Q320.4824,791.3672 319.1542,789.7266 Q317.8417,788.0703 317.8417,784.9453 Q317.8417,781.8203 319.1542,780.1641 Q320.4824,778.5078 322.9824,778.5078 Q323.6855,778.5078 324.3261,778.6641 Q324.9824,778.8203 325.5449,779.1172 L325.5449,781.8359 Q324.9199,781.2578 324.3261,780.9922 Q323.7324,780.7109 323.1074,780.7109 Q321.7636,780.7109 321.0761,781.7891 Q320.3886,782.8516 320.3886,784.9453 Q320.3886,787.0391 321.0761,788.1172 Q321.7636,789.1797 323.1074,789.1797 Q323.7324,789.1797 324.3261,788.9141 Q324.9199,788.6328 325.5449,788.0547 L325.5449,790.7734 Z " fill="#000000"/><text fill="#000000" font-family="sans-serif" font-size="12" font-style="italic" lengthAdjust="spacing" textLength="63.3398" x="346.4498" y="781.1387">&#171;QObject&#187;</text><text fill="#000000" font-family="sans-serif" font-size="14" lengthAdjust="spacing" textLength="82.8311" x="336.7042" y="796.9639">TaskSignals</text><line style="stroke:#181818;stroke-width:0.5;" x1="308" x2="422.1113" y1="805.2656" y2="805.2656"/><line style="stroke:#181818;stroke-width:0.5;" x1="308" x2="422.1113" y1="813.2656" y2="813.2656"/><text fill="#000000" font-family="sans-serif" font-size="14" lengthAdjust="spacing" textLength="101.958" x="313" y="830.2607">+progress(int)</text><text fill="#000000" font-family="sans-serif" font-size="14" lengthAdjust="spacing" textLength="104.1113" x="313" y="846.5576">+message(str)</text><text fill="#000000" font-family="sans-serif" font-size="14" lengthAdjust="spacing" textLength="77.9023" x="313" y="862.8545">+finished()</text><text fill="#000000" font-family="sans-serif" font-size="14" lengthAdjust="spacing" textLength="75.6396" x="313" y="879.1514">+error(str)</text></g><!--class BaseTask--><g class="entity" data-entity="BaseTask" data-source-line="18" data-uid="ent0004" id="entity_BaseTask"><rect fill="#F1F1F1" height="219.2344" rx="2.5" ry="2.5" style="stroke:#181818;stroke-width:0.5;" width="166.2461" x="201" y="469"/><ellipse cx="216" cy="489.1328" fill="#ADD1B2" rx="11" ry="11" style="stroke:#181818;stroke-width:1;"/><path d="M218.9688,494.7734 Q218.3906,495.0703 217.75,495.2109 Q217.1094,495.3672 216.4063,495.3672 Q213.9063,495.3672 212.5781,493.7266 Q211.2656,492.0703 211.2656,488.9453 Q211.2656,485.8203 212.5781,484.1641 Q213.9063,482.5078 216.4063,482.5078 Q217.1094,482.5078 217.75,482.6641 Q218.4063,482.8203 218.9688,483.1172 L218.9688,485.8359 Q218.3438,485.2578 217.75,484.9922 Q217.1563,484.7109 216.5313,484.7109 Q215.1875,484.7109 214.5,485.7891 Q213.8125,486.8516 213.8125,488.9453 Q213.8125,491.0391 214.5,492.1172 Q215.1875,493.1797 216.5313,493.1797 Q217.1563,493.1797 217.75,492.9141 Q218.3438,492.6328 218.9688,492.0547 L218.9688,494.7734 Z " fill="#000000"/><text fill="#000000" font-family="sans-serif" font-size="12" font-style="italic" lengthAdjust="spacing" textLength="138.2461" x="228" y="485.1387">&#171;QRunnable, abstract&#187;</text><text fill="#000000" font-family="sans-serif" font-size="14" lengthAdjust="spacing" textLength="66.623" x="263.8115" y="500.9639">BaseTask</text><line style="stroke:#181818;stroke-width:0.5;" x1="202" x2="366.2461" y1="509.2656" y2="509.2656"/><text fill="#000000" font-family="sans-serif" font-size="14" lengthAdjust="spacing" textLength="49.9844" x="207" y="526.2607">-id : str</text><text fill="#000000" font-family="sans-serif" font-size="14" lengthAdjust="spacing" textLength="138.8311" x="207" y="542.5576">-status : TaskStatus</text><text fill="#000000" font-family="sans-serif" font-size="14" lengthAdjust="spacing" textLength="150.2061" x="207" y="558.8545">-signals : TaskSignals</text><text fill="#000000" font-family="sans-serif" font-size="14" lengthAdjust="spacing" textLength="140.499" x="207" y="575.1514">-_is_cancelled : bool</text><text fill="#000000" font-family="sans-serif" font-size="14" lengthAdjust="spacing" textLength="124.9268" x="207" y="591.4482">-_mutex : QMutex</text><line style="stroke:#181818;stroke-width:0.5;" x1="202" x2="366.2461" y1="598.75" y2="598.75"/><text fill="#000000" font-family="sans-serif" font-size="14" lengthAdjust="spacing" textLength="72.7959" x="207" y="615.7451">+__init__()</text><text fill="#000000" font-family="sans-serif" font-size="14" lengthAdjust="spacing" textLength="68.0039" x="207" y="632.042">+cancel()</text><text fill="#000000" font-family="sans-serif" font-size="14" lengthAdjust="spacing" textLength="151.1016" x="207" y="648.3389">+is_cancelled() : bool</text><text fill="#000000" font-family="sans-serif" font-size="14" lengthAdjust="spacing" textLength="46.1563" x="207" y="664.6357">+run()</text><text fill="#000000" font-family="sans-serif" font-size="14" font-style="italic" lengthAdjust="spacing" textLength="74.1084" x="207" y="680.9326">_execute()</text></g><!--class DownloadTask--><g class="entity" data-entity="DownloadTask" data-source-line="31" data-uid="ent0005" id="entity_DownloadTask"><rect fill="#F1F1F1" height="96.8906" rx="2.5" ry="2.5" style="stroke:#181818;stroke-width:0.5;" width="134.1221" x="7" y="258.5"/><ellipse cx="22" cy="274.5" fill="#ADD1B2" rx="11" ry="11" style="stroke:#181818;stroke-width:1;"/><path d="M24.9688,280.1406 Q24.3906,280.4375 23.75,280.5781 Q23.1094,280.7344 22.4063,280.7344 Q19.9063,280.7344 18.5781,279.0938 Q17.2656,277.4375 17.2656,274.3125 Q17.2656,271.1875 18.5781,269.5313 Q19.9063,267.875 22.4063,267.875 Q23.1094,267.875 23.75,268.0313 Q24.4063,268.1875 24.9688,268.4844 L24.9688,271.2031 Q24.3438,270.625 23.75,270.3594 Q23.1563,270.0781 22.5313,270.0781 Q21.1875,270.0781 20.5,271.1563 Q19.8125,272.2188 19.8125,274.3125 Q19.8125,276.4063 20.5,277.4844 Q21.1875,278.5469 22.5313,278.5469 Q23.1563,278.5469 23.75,278.2813 Q24.3438,278 24.9688,277.4219 L24.9688,280.1406 Z " fill="#000000"/><text fill="#000000" font-family="sans-serif" font-size="14" lengthAdjust="spacing" textLength="102.1221" x="36" y="279.3467">DownloadTask</text><line style="stroke:#181818;stroke-width:0.5;" x1="8" x2="140.1221" y1="290.5" y2="290.5"/><text fill="#000000" font-family="sans-serif" font-size="14" lengthAdjust="spacing" textLength="55.7266" x="13" y="307.4951">-url : str</text><text fill="#000000" font-family="sans-serif" font-size="14" lengthAdjust="spacing" textLength="67.4912" x="13" y="323.792">-dest : str</text><line style="stroke:#181818;stroke-width:0.5;" x1="8" x2="140.1221" y1="331.0938" y2="331.0938"/><text fill="#000000" font-family="sans-serif" font-size="14" lengthAdjust="spacing" textLength="85.8389" x="13" y="348.0889">+_execute()</text></g><!--class TaskManager--><g class="entity" data-entity="TaskManager" data-source-line="37" data-uid="ent0006" id="entity_TaskManager"><rect fill="#F1F1F1" height="170.3438" rx="2.5" ry="2.5" style="stroke:#181818;stroke-width:0.5;" width="215.7314" x="176" y="222"/><ellipse cx="232.6665" cy="242.1328" fill="#ADD1B2" rx="11" ry="11" style="stroke:#181818;stroke-width:1;"/><path d="M235.6353,247.7734 Q235.0571,248.0703 234.4165,248.2109 Q233.7759,248.3672 233.0728,248.3672 Q230.5728,248.3672 229.2446,246.7266 Q227.9321,245.0703 227.9321,241.9453 Q227.9321,238.8203 229.2446,237.1641 Q230.5728,235.5078 233.0728,235.5078 Q233.7759,235.5078 234.4165,235.6641 Q235.0728,235.8203 235.6353,236.1172 L235.6353,238.8359 Q235.0103,238.2578 234.4165,237.9922 Q233.8228,237.7109 233.1978,237.7109 Q231.854,237.7109 231.1665,238.7891 Q230.479,239.8516 230.479,241.9453 Q230.479,244.0391 231.1665,245.1172 Q231.854,246.1797 233.1978,246.1797 Q233.8228,246.1797 234.4165,245.9141 Q235.0103,245.6328 235.6353,245.0547 L235.6353,247.7734 Z " fill="#000000"/><text fill="#000000" font-family="sans-serif" font-size="12" font-style="italic" lengthAdjust="spacing" textLength="63.3398" x="268.4458" y="238.1387">&#171;QObject&#187;</text><text fill="#000000" font-family="sans-serif" font-size="14" lengthAdjust="spacing" textLength="93.8984" x="253.1665" y="253.9639">TaskManager</text><line style="stroke:#181818;stroke-width:0.5;" x1="177" x2="390.7314" y1="262.2656" y2="262.2656"/><text fill="#000000" font-family="sans-serif" font-size="14" lengthAdjust="spacing" textLength="138.3184" x="182" y="279.2607">-pool : QThreadPool</text><text fill="#000000" font-family="sans-serif" font-size="14" lengthAdjust="spacing" textLength="88.3955" x="182" y="295.5576">-_tasks : dict</text><line style="stroke:#181818;stroke-width:0.5;" x1="177" x2="390.7314" y1="302.8594" y2="302.8594"/><text fill="#000000" font-family="sans-serif" font-size="14" lengthAdjust="spacing" textLength="180.4346" x="182" y="319.8545">+submit(task : BaseTask)</text><text fill="#000000" font-family="sans-serif" font-size="14" lengthAdjust="spacing" textLength="149.4063" x="182" y="336.1514">+cancel(task_id : str)</text><text fill="#000000" font-family="sans-serif" font-size="14" lengthAdjust="spacing" textLength="151.9082" x="182" y="352.4482">-_on_finished(task_id)</text><text fill="#000000" font-family="sans-serif" font-size="14" lengthAdjust="spacing" textLength="203.7314" x="182" y="368.7451">signal task_added(BaseTask)</text><text fill="#000000" font-family="sans-serif" font-size="14" lengthAdjust="spacing" textLength="174.1523" x="182" y="385.042">signal task_removed(str)</text></g><!--class UIMediator--><g class="entity" data-entity="UIMediator" data-source-line="47" data-uid="ent0007" id="entity_UIMediator"><rect fill="#F1F1F1" height="72.5625" rx="2.5" ry="2.5" style="stroke:#181818;stroke-width:0.5;" width="140.7617" x="313.5" y="39.5"/><ellipse cx="343.1373" cy="59.6328" fill="#ADD1B2" rx="11" ry="11" style="stroke:#181818;stroke-width:1;"/><path d="M346.1061,65.2734 Q345.5279,65.5703 344.8873,65.7109 Q344.2467,65.8672 343.5436,65.8672 Q341.0436,65.8672 339.7154,64.2266 Q338.4029,62.5703 338.4029,59.4453 Q338.4029,56.3203 339.7154,54.6641 Q341.0436,53.0078 343.5436,53.0078 Q344.2467,53.0078 344.8873,53.1641 Q345.5436,53.3203 346.1061,53.6172 L346.1061,56.3359 Q345.4811,55.7578 344.8873,55.4922 Q344.2936,55.2109 343.6686,55.2109 Q342.3248,55.2109 341.6373,56.2891 Q340.9498,57.3516 340.9498,59.4453 Q340.9498,61.5391 341.6373,62.6172 Q342.3248,63.6797 343.6686,63.6797 Q344.2936,63.6797 344.8873,63.4141 Q345.4811,63.1328 346.1061,62.5547 L346.1061,65.2734 Z " fill="#000000"/><text fill="#000000" font-family="sans-serif" font-size="12" font-style="italic" lengthAdjust="spacing" textLength="63.3398" x="366.8373" y="55.6387">&#171;QObject&#187;</text><text fill="#000000" font-family="sans-serif" font-size="14" lengthAdjust="spacing" textLength="76.2344" x="360.39" y="71.4639">UIMediator</text><line style="stroke:#181818;stroke-width:0.5;" x1="314.5" x2="453.2617" y1="79.7656" y2="79.7656"/><line style="stroke:#181818;stroke-width:0.5;" x1="314.5" x2="453.2617" y1="87.7656" y2="87.7656"/><text fill="#000000" font-family="sans-serif" font-size="14" lengthAdjust="spacing" textLength="128.7617" x="319.5" y="104.7607">+connectSignals()</text></g><!--reverse link BaseTask to TaskSignals--><g class="link" data-entity-1="BaseTask" data-entity-2="TaskSignals" data-source-line="51" data-uid="lnk8" id="link_BaseTask_TaskSignals"><path codeLine="51" d="M323.6475,699.4232 C332.3675,725.7932 337.61,741.64 345.26,764.78" fill="none" id="BaseTask-backto-TaskSignals" style="stroke:#181818;stroke-width:1;"/><polygon fill="#181818" points="319.88,688.03,317.966,694.9825,323.6475,699.4232,325.5615,692.4708,319.88,688.03" style="stroke:#181818;stroke-width:1;"/><text fill="#000000" font-family="sans-serif" font-size="13" lengthAdjust="spacing" textLength="33.5981" x="336" y="731.0669">owns</text><text fill="#000000" font-family="sans-serif" font-size="13" lengthAdjust="spacing" textLength="8.271" x="314.1224" y="708.322">1</text><text fill="#000000" font-family="sans-serif" font-size="13" lengthAdjust="spacing" textLength="8.271" x="334.5243" y="753.9404">1</text></g><!--link DownloadTask to BaseTask--><g class="link" data-entity-1="DownloadTask" data-entity-2="BaseTask" data-source-line="52" data-uid="lnk9" id="link_DownloadTask_BaseTask"><path codeLine="52" d="M111.06,355.56 C135.96,387.52 158.7336,416.7537 189.8836,456.7137" fill="none" id="DownloadTask-to-BaseTask" style="stroke:#181818;stroke-width:1;"/><polygon fill="none" points="200.95,470.91,194.6157,453.0249,185.1515,460.4025,200.95,470.91" style="stroke:#181818;stroke-width:1;"/></g><!--reverse link TaskManager to BaseTask--><g class="link" data-entity-1="TaskManager" data-entity-2="BaseTask" data-source-line="53" data-uid="lnk10" id="link_TaskManager_BaseTask"><path codeLine="53" d="M284,404.16 C284,428.41 284,443.21 284,468.73" fill="none" id="TaskManager-backto-BaseTask" style="stroke:#181818;stroke-width:1;"/><polygon fill="none" points="284,392.16,280,398.16,284,404.16,288,398.16,284,392.16" style="stroke:#181818;stroke-width:1;"/><text fill="#000000" font-family="sans-serif" font-size="13" lengthAdjust="spacing" textLength="59.8584" x="285" y="435.0669">manages</text><text fill="#000000" font-family="sans-serif" font-size="13" lengthAdjust="spacing" textLength="8.271" x="275.6678" y="412.47">1</text><text fill="#000000" font-family="sans-serif" font-size="13" lengthAdjust="spacing" textLength="6.5" x="277.807" y="457.9144">*</text></g><!--link UIMediator to TaskManager--><g class="link" data-entity-1="UIMediator" data-entity-2="TaskManager" data-source-line="54" data-uid="lnk11" id="link_UIMediator_TaskManager"><path codeLine="54" d="M368.38,112.78 C355.69,141.84 339.6713,178.5115 323.2813,216.0415" fill="none" id="UIMediator-to-TaskManager" style="stroke:#181818;stroke-width:1;stroke-dasharray:7,7;"/><polygon fill="#181818" points="320.88,221.54,328.1476,214.8931,322.8811,216.9579,320.8163,211.6913,320.88,221.54" style="stroke:#181818;stroke-width:1;"/><text fill="#000000" font-family="sans-serif" font-size="13" lengthAdjust="spacing" textLength="58.7856" x="341" y="188.0669">observes</text></g><!--link UIMediator to TaskSignals--><g class="link" data-entity-1="UIMediator" data-entity-2="TaskSignals" data-source-line="55" data-uid="lnk12" id="link_UIMediator_TaskSignals"><path codeLine="55" d="M394.8,112.94 C399.82,131.32 405.26,154.16 408,175 C410.72,195.72 408.78,201.11 409,222 C409.8,297.55 412.18,316.51 409,392 C403.44,523.91 397.92,556.71 384,688 C381.33,713.22 378.4669,735.0215 375.0269,758.8615" fill="none" id="UIMediator-to-TaskSignals" style="stroke:#181818;stroke-width:1;stroke-dasharray:7,7;"/><polygon fill="#181818" points="374.17,764.8,379.4143,756.4635,374.8841,759.8513,371.4963,755.321,374.17,764.8" style="stroke:#181818;stroke-width:1;"/><text fill="#000000" font-family="sans-serif" font-size="13" lengthAdjust="spacing" textLength="93.2598" x="409" y="435.0669">connects to UI</text></g><!--SRC=[RLF1JkCm4BtdAqOzfPGWk4QeKg5bLQaD1SevSfAXU4diodPOj2p_lkF43WvgB_NC6y-RDy_HRrmScM8Db3NJUc6CuaLhS5rAySJ_8bn6KOV0dkct9yDCg-7w6aNRe6A6Ip6VmsS4zDkjikKw-zMT7v-pp9zlxxUxpMg_MlRH8hjTRJOkkbkixV5hHC8FWjMMvU6- -8sb6HXcS5Joe53hc0ipTRc6OdR0M1lbKozSSFsALUmJg9HKVSN0TSCqMZvBzDWAmOeQpu4LLCK2qWHu1IbGreMwNq8QRCGZRl8qrE6mdEkyPAB4kaRRhv2ozb132_-WtCFM7jp8UKuYJ9uF6lhRGnZsYwTXnnceLhYwJw_d2tBym988uc07I_b7r99LtHwytbRL8y4LQXCaPYSxsGvR9iW8TSAv18uqdPMuVrN8gbsWtj1DkxEAbyOHwBPek8ajGe0twiSYB9fxRwQ-cnJvuBwhwB7U7EXohAe87lSDSOMDVAUAyODvNc-nuin8TV9jqXSZAEDixtSplB79rGJEagJx3nzv2kI0ZaO-9Cc_-I0w2XThRqlRvMpo_NnJQ3fOHy605nVpaIN4KsXKxwUhlgTn8ZGOINh_0m00]--></g></svg>