<svg xmlns="http://www.w3.org/2000/svg" xmlns:xlink="http://www.w3.org/1999/xlink" contentStyleType="text/css" data-diagram-type="SEQUENCE" height="269px" preserveAspectRatio="none" style="width:312px;height:269px;background:#FFFFFF;" version="1.1" viewBox="0 0 312 269" width="312px" zoomAndPan="magnify"><defs/><g><g><title>Tester</title><rect fill="#000000" fill-opacity="0.00000" height="107.3984" width="8" x="26.1587" y="81.2969"/><line style="stroke:#181818;stroke-width:0.5;stroke-dasharray:5,5;" x1="30" x2="30" y1="81.2969" y2="188.6953"/></g><g><title>Arrange</title><rect fill="#000000" fill-opacity="0.00000" height="107.3984" width="8" x="152.2798" y="81.2969"/><line style="stroke:#181818;stroke-width:0.5;stroke-dasharray:5,5;" x1="156.2593" x2="156.2593" y1="81.2969" y2="188.6953"/></g><g><title>Act</title><rect fill="#000000" fill-opacity="0.00000" height="107.3984" width="8" x="215.6821" y="81.2969"/><line style="stroke:#181818;stroke-width:0.5;stroke-dasharray:5,5;" x1="219.3003" x2="219.3003" y1="81.2969" y2="188.6953"/></g><g><title>Assert</title><rect fill="#000000" fill-opacity="0.00000" height="107.3984" width="8" x="273.0757" y="81.2969"/><line style="stroke:#181818;stroke-width:0.5;stroke-dasharray:5,5;" x1="277.064" x2="277.064" y1="81.2969" y2="188.6953"/></g><g class="participant participant-head" data-participant="Tester"><text fill="#000000" font-family="sans-serif" font-size="14" lengthAdjust="spacing" textLength="44.3174" x="5" y="77.9951">Tester</text><ellipse cx="30.1587" cy="13.5" fill="#E2E2F0" rx="8" ry="8" style="stroke:#181818;stroke-width:0.5;"/><path d="M30.1587,21.5 L30.1587,48.5 M17.1587,29.5 L43.1587,29.5 M30.1587,48.5 L17.1587,63.5 M30.1587,48.5 L43.1587,63.5" fill="none" style="stroke:#181818;stroke-width:0.5;"/></g><g class="participant participant-tail" data-participant="Tester"><text fill="#000000" font-family="sans-serif" font-size="14" lengthAdjust="spacing" textLength="44.3174" x="5" y="200.6904">Tester</text><ellipse cx="30.1587" cy="212.4922" fill="#E2E2F0" rx="8" ry="8" style="stroke:#181818;stroke-width:0.5;"/><path d="M30.1587,220.4922 L30.1587,247.4922 M17.1587,228.4922 L43.1587,228.4922 M30.1587,247.4922 L17.1587,262.4922 M30.1587,247.4922 L43.1587,262.4922" fill="none" style="stroke:#181818;stroke-width:0.5;"/></g><g class="participant participant-head" data-participant="A"><rect fill="#E2E2F0" height="30.2969" rx="2.5" ry="2.5" style="stroke:#181818;stroke-width:0.5;" width="70.041" x="121.2593" y="50"/><text fill="#000000" font-family="sans-serif" font-size="14" lengthAdjust="spacing" textLength="56.041" x="128.2593" y="69.9951">Arrange</text></g><g class="participant participant-tail" data-participant="A"><rect fill="#E2E2F0" height="30.2969" rx="2.5" ry="2.5" style="stroke:#181818;stroke-width:0.5;" width="70.041" x="121.2593" y="187.6953"/><text fill="#000000" font-family="sans-serif" font-size="14" lengthAdjust="spacing" textLength="56.041" x="128.2593" y="207.6904">Arrange</text></g><g class="participant participant-head" data-participant="B"><rect fill="#E2E2F0" height="30.2969" rx="2.5" ry="2.5" style="stroke:#181818;stroke-width:0.5;" width="36.7637" x="201.3003" y="50"/><text fill="#000000" font-family="sans-serif" font-size="14" lengthAdjust="spacing" textLength="22.7637" x="208.3003" y="69.9951">Act</text></g><g class="participant participant-tail" data-participant="B"><rect fill="#E2E2F0" height="30.2969" rx="2.5" ry="2.5" style="stroke:#181818;stroke-width:0.5;" width="36.7637" x="201.3003" y="187.6953"/><text fill="#000000" font-family="sans-serif" font-size="14" lengthAdjust="spacing" textLength="22.7637" x="208.3003" y="207.6904">Act</text></g><g class="participant participant-head" data-participant="C"><rect fill="#E2E2F0" height="30.2969" rx="2.5" ry="2.5" style="stroke:#181818;stroke-width:0.5;" width="58.0234" x="248.064" y="50"/><text fill="#000000" font-family="sans-serif" font-size="14" lengthAdjust="spacing" textLength="44.0234" x="255.064" y="69.9951">Assert</text></g><g class="participant participant-tail" data-participant="C"><rect fill="#E2E2F0" height="30.2969" rx="2.5" ry="2.5" style="stroke:#181818;stroke-width:0.5;" width="58.0234" x="248.064" y="187.6953"/><text fill="#000000" font-family="sans-serif" font-size="14" lengthAdjust="spacing" textLength="44.0234" x="255.064" y="207.6904">Assert</text></g><g class="message" data-participant-1="Tester" data-participant-2="A"><polygon fill="#181818" points="144.2798,108.4297,154.2798,112.4297,144.2798,116.4297,148.2798,112.4297" style="stroke:#181818;stroke-width:1;"/><line style="stroke:#181818;stroke-width:1;" x1="30.1587" x2="150.2798" y1="112.4297" y2="112.4297"/><text fill="#000000" font-family="sans-serif" font-size="13" lengthAdjust="spacing" textLength="102.1211" x="37.1587" y="107.3638">prepare objects</text></g><g class="message" data-participant-1="Tester" data-participant-2="B"><polygon fill="#181818" points="207.6821,137.5625,217.6821,141.5625,207.6821,145.5625,211.6821,141.5625" style="stroke:#181818;stroke-width:1;"/><line style="stroke:#181818;stroke-width:1;" x1="30.1587" x2="213.6821" y1="141.5625" y2="141.5625"/><text fill="#000000" font-family="sans-serif" font-size="13" lengthAdjust="spacing" textLength="104.2158" x="37.1587" y="136.4966">invoke behavior</text></g><g class="message" data-participant-1="Tester" data-participant-2="C"><polygon fill="#181818" points="265.0757,166.6953,275.0757,170.6953,265.0757,174.6953,269.0757,170.6953" style="stroke:#181818;stroke-width:1;"/><line style="stroke:#181818;stroke-width:1;" x1="30.1587" x2="271.0757" y1="170.6953" y2="170.6953"/><text fill="#000000" font-family="sans-serif" font-size="13" lengthAdjust="spacing" textLength="124.8774" x="37.1587" y="165.6294">verify expectations</text></g><!--SRC=[NSn13i8m40F0UrzXzSu7Sa1A-mK-i8qCB4X9jBkguFTKz5Brwh4j9PhXHW_QqCL2YtQfWJ6RINrmX3ZoYKhyu-aKkzDscOVz4fShSa8tRasYBI-My0DE2LhNzYOMFcNLPWUS4rQQth_Wfsz32MtLVm00]--></g></svg>