<svg xmlns="http://www.w3.org/2000/svg" xmlns:xlink="http://www.w3.org/1999/xlink" contentStyleType="text/css" data-diagram-type="DESCRIPTION" height="215px" preserveAspectRatio="none" style="width:1202px;height:215px;background:#FFFFFF;" version="1.1" viewBox="0 0 1202 215" width="1202px" zoomAndPan="magnify"><defs/><g><!--cluster Well-Designed API--><g class="cluster" data-entity="Well-Designed API" data-source-line="3" data-uid="ent0002" id="cluster_Well-Designed API"><path d="M780.5,6 L926.7773,6 A3.75,3.75 0 0 1 929.2773,8.5 L936.2773,28.2969 L1192.5,28.2969 A2.5,2.5 0 0 1 1195,30.7969 L1195,206.08 A2.5,2.5 0 0 1 1192.5,208.58 L780.5,208.58 A2.5,2.5 0 0 1 778,206.08 L778,8.5 A2.5,2.5 0 0 1 780.5,6" fill="none" style="stroke:#000000;stroke-width:1.5;"/><line style="stroke:#000000;stroke-width:1.5;" x1="778" x2="936.2773" y1="28.2969" y2="28.2969"/><text fill="#000000" font-family="sans-serif" font-size="14" font-weight="bold" lengthAdjust="spacing" textLength="145.2773" x="782" y="20.9951">Well-Designed API</text></g><!--cluster Leaking API (Bad Design)--><g class="cluster" data-entity="Leaking API .Bad Design." data-source-line="13" data-uid="ent0009" id="cluster_Leaking API .Bad Design."><path d="M8.5,6 L209.5605,6 A3.75,3.75 0 0 1 212.0605,8.5 L219.0605,28.2969 L551.5,28.2969 A2.5,2.5 0 0 1 554,30.7969 L554,206.08 A2.5,2.5 0 0 1 551.5,208.58 L8.5,208.58 A2.5,2.5 0 0 1 6,206.08 L6,8.5 A2.5,2.5 0 0 1 8.5,6" fill="none" style="stroke:#000000;stroke-width:1.5;"/><line style="stroke:#000000;stroke-width:1.5;" x1="6" x2="219.0605" y1="28.2969" y2="28.2969"/><text fill="#000000" font-family="sans-serif" font-size="14" font-weight="bold" lengthAdjust="spacing" textLength="200.0605" x="10" y="20.9951">Leaking API (Bad Design)</text></g><!--entity Priv1--><g class="entity" data-entity="Priv1" data-source-line="4" data-uid="ent0003" id="entity_Priv1"><rect fill="#F1F1F1" height="36.2969" rx="2.5" ry="2.5" style="stroke:#181818;stroke-width:0.5;" width="95.6533" x="1030.17" y="156.28"/><text fill="#000000" font-family="sans-serif" font-size="14" lengthAdjust="spacing" textLength="75.6533" x="1040.17" y="179.2751">Private API</text></g><!--entity Impl1--><g class="entity" data-entity="Impl1" data-source-line="5" data-uid="ent0004" id="entity_Impl1"><rect fill="#F1F1F1" height="36.2969" rx="2.5" ry="2.5" style="stroke:#181818;stroke-width:0.5;" width="184.1514" x="994.92" y="41"/><text fill="#000000" font-family="sans-serif" font-size="14" lengthAdjust="spacing" textLength="164.1514" x="1004.92" y="63.9951">Implementation Details</text></g><!--entity Pub1--><g class="entity" data-entity="Pub1" data-source-line="6" data-uid="ent0005" id="entity_Pub1"><rect fill="#F1F1F1" height="36.2969" rx="2.5" ry="2.5" style="stroke:#181818;stroke-width:0.5;" width="88.2773" x="832.86" y="156.28"/><text fill="#000000" font-family="sans-serif" font-size="14" lengthAdjust="spacing" textLength="68.2773" x="842.86" y="179.2751">Public API</text></g><!--entity Obs1--><g class="entity" data-entity="Obs1" data-source-line="7" data-uid="ent0006" id="entity_Obs1"><rect fill="#F1F1F1" height="36.2969" rx="2.5" ry="2.5" style="stroke:#181818;stroke-width:0.5;" width="166.4395" x="793.78" y="41"/><text fill="#000000" font-family="sans-serif" font-size="14" lengthAdjust="spacing" textLength="146.4395" x="803.78" y="63.9951">Observable Behavior</text></g><!--entity Priv2--><g class="entity" data-entity="Priv2" data-source-line="14" data-uid="ent0010" id="entity_Priv2"><rect fill="#F1F1F1" height="36.2969" rx="2.5" ry="2.5" style="stroke:#181818;stroke-width:0.5;" width="95.6533" x="442.17" y="41"/><text fill="#000000" font-family="sans-serif" font-size="14" lengthAdjust="spacing" textLength="75.6533" x="452.17" y="63.9951">Private API</text></g><!--entity Impl2--><g class="entity" data-entity="Impl2" data-source-line="15" data-uid="ent0011" id="entity_Impl2"><rect fill="#F1F1F1" height="36.2969" rx="2.5" ry="2.5" style="stroke:#181818;stroke-width:0.5;" width="184.1514" x="222.92" y="41"/><text fill="#000000" font-family="sans-serif" font-size="14" lengthAdjust="spacing" textLength="164.1514" x="232.92" y="63.9951">Implementation Details</text></g><!--entity Pub2--><g class="entity" data-entity="Pub2" data-source-line="16" data-uid="ent0012" id="entity_Pub2"><rect fill="#F1F1F1" height="36.2969" rx="2.5" ry="2.5" style="stroke:#181818;stroke-width:0.5;" width="88.2773" x="139.86" y="156.28"/><text fill="#000000" font-family="sans-serif" font-size="14" lengthAdjust="spacing" textLength="68.2773" x="149.86" y="179.2751">Public API</text></g><!--entity Obs2--><g class="entity" data-entity="Obs2" data-source-line="17" data-uid="ent0013" id="entity_Obs2"><rect fill="#F1F1F1" height="36.2969" rx="2.5" ry="2.5" style="stroke:#181818;stroke-width:0.5;" width="166.4395" x="21.78" y="41"/><text fill="#000000" font-family="sans-serif" font-size="14" lengthAdjust="spacing" textLength="146.4395" x="31.78" y="63.9951">Observable Behavior</text></g><g class="entity" data-entity="GMN16" data-source-line="23" data-uid="ent0017" id="entity_GMN16"><path d="M570.1,154.3 L570.1,194.5656 A0,0 0 0 0 570.1,194.5656 L761.9027,194.5656 A0,0 0 0 0 761.9027,194.5656 L761.9027,164.3 L751.9027,154.3 L609.22,154.3 L369.46,77.73 L601.22,154.3 L570.1,154.3 A0,0 0 0 0 570.1,154.3" fill="#FEFFDD" style="stroke:#181818;stroke-width:0.5;"/><path d="M751.9027,154.3 L751.9027,164.3 L761.9027,164.3 L751.9027,154.3" fill="#FEFFDD" style="stroke:#181818;stroke-width:0.5;"/><text fill="#000000" font-family="sans-serif" font-size="13" lengthAdjust="spacing" textLength="170.8027" x="576.1" y="171.3669">&#272;&#226;y l&#224; nguy&#234;n nh&#226;n khi&#7871;n</text><text fill="#000000" font-family="sans-serif" font-size="13" lengthAdjust="spacing" textLength="166.4482" x="576.1" y="186.4997">Test b&#7883; v&#7905; khi Refactoring</text></g><!--link Impl1 to Priv1--><g class="link" data-entity-1="Impl1" data-entity-2="Priv1" data-source-line="9" data-uid="lnk7" id="link_Impl1_Priv1"><path d="M1085.63,77.36 C1083.94,98.65 1081.556,128.7189 1079.856,150.0789" fill="none" id="Impl1-to-Priv1" style="stroke:#181818;stroke-width:1;"/><polygon fill="#181818" points="1079.38,156.06,1084.0814,147.4057,1079.7767,151.0758,1076.1066,146.771,1079.38,156.06" style="stroke:#181818;stroke-width:1;"/><text fill="#000000" font-family="sans-serif" font-size="13" lengthAdjust="spacing" textLength="99.6772" x="1084" y="120.3669">Ph&#7843;i n&#7857;m trong</text></g><!--link Obs1 to Pub1--><g class="link" data-entity-1="Obs1" data-entity-2="Pub1" data-source-line="10" data-uid="lnk8" id="link_Obs1_Pub1"><path d="M877,77.36 C877,98.65 877,128.7 877,150.06" fill="none" id="Obs1-to-Pub1" style="stroke:#181818;stroke-width:1;"/><polygon fill="#181818" points="877,156.06,881,147.06,877,151.06,873,147.06,877,156.06" style="stroke:#181818;stroke-width:1;"/><text fill="#000000" font-family="sans-serif" font-size="13" lengthAdjust="spacing" textLength="105.3584" x="878" y="120.3669">Ph&#7843;i l&#224; duy nh&#7845;t</text></g><!--link Impl2 to Pub2--><g class="link" data-entity-1="Impl2" data-entity-2="Pub2" data-source-line="19" data-uid="lnk14" id="link_Impl2_Pub2"><path d="M294.82,77.6 C270.13,98.95 233.1278,130.9446 208.5278,152.2246" fill="none" id="Impl2-to-Pub2" style="stroke:#181818;stroke-width:1;"/><polygon fill="#181818" points="203.99,156.15,213.4136,153.2871,207.7715,152.8789,208.1798,147.2368,203.99,156.15" style="stroke:#181818;stroke-width:1;"/><text fill="#000000" font-family="sans-serif" font-size="13" lengthAdjust="spacing" textLength="108.6719" x="258" y="120.3669">&#9888;&#65039; R&#242; r&#7881; ra ngo&#224;i!</text></g><!--link Obs2 to Pub2--><g class="link" data-entity-1="Obs2" data-entity-2="Pub2" data-source-line="20" data-uid="lnk15" id="link_Obs2_Pub2"><path d="M117,77.36 C131.85,98.65 153.5573,129.779 168.4573,151.139" fill="none" id="Obs2-to-Pub2" style="stroke:#181818;stroke-width:1;"/><polygon fill="#181818" points="171.89,156.06,170.0216,146.39,169.0294,151.9592,163.4602,150.967,171.89,156.06" style="stroke:#181818;stroke-width:1;"/></g><!--SRC=[ZP2zJiCm58NtFCMb4mmToDW1YQfB9IIYWiG034voSQqwrv7Z14M81q0CC3EL8XOsc50xC8GN2I_0As0dGug40CcBxpdtvplPJ53AD4iWKacg2CaSc58YQ8mC8oxHyr8MpHX7w1sXbFqHPe8Jnh0RZ7jmuG4S1reKpA2hd0BBmFstdJ1EKec9dScCK0GZD4p8hF4ugV44UIX5rFNcOLFU3pFK1GljAKESia8etUYsxdJxcWdGZzKvzNVQdJ20O5el7mHGlNnEm6X5t5fTK-Uq6pgZhEOGvoMG_JuQxt8DTm-PJOUxqs1po69eqRT-eVR_GUt_JEt_GUrtrFuwYszPFkxcdwytCAbUGDUhAz0CYAjgBZPQ-EyD3fAKlJnKngW4r5axTG3ljzMYR28XdfVL4zbOgWN1R2hgvHkTq25c1i9wTGr5lRftTPZW6OkCqZQfBm00]--></g></svg>