<svg xmlns="http://www.w3.org/2000/svg" xmlns:xlink="http://www.w3.org/1999/xlink" contentStyleType="text/css" data-diagram-type="DESCRIPTION" height="426px" preserveAspectRatio="none" style="width:622px;height:426px;background:#FFFFFF;" version="1.1" viewBox="0 0 622 426" width="622px" zoomAndPan="magnify"><defs/><g><!--cluster Your Application (Hexagon)--><g class="cluster" data-entity="Your Application .Hexagon." data-source-line="3" data-uid="ent0002" id="cluster_Your Application .Hexagon."><path d="M8.5,6 L227.2656,6 A3.75,3.75 0 0 1 229.7656,8.5 L236.7656,28.2969 L236.5,28.2969 A2.5,2.5 0 0 1 239,30.7969 L239,416.69 A2.5,2.5 0 0 1 236.5,419.19 L8.5,419.19 A2.5,2.5 0 0 1 6,416.69 L6,8.5 A2.5,2.5 0 0 1 8.5,6" fill="none" style="stroke:#000000;stroke-width:1.5;"/><line style="stroke:#000000;stroke-width:1.5;" x1="6" x2="236.7656" y1="28.2969" y2="28.2969"/><text fill="#000000" font-family="sans-serif" font-size="14" font-weight="bold" lengthAdjust="spacing" textLength="217.7656" x="10" y="20.9951">Your Application (Hexagon)</text></g><!--cluster External Systems--><g class="cluster" data-entity="External Systems" data-source-line="12" data-uid="ent0008" id="cluster_External Systems"><path d="M271.0319,195.4541 C276.8272,184.2235 287.8301,185.7357 293.5059,195.5815 C299.1337,183.4578 306.0627,184.5489 314.3733,192.8392 C321.1153,184.2823 326.8316,185.8067 332.8165,193.6886 C339.1785,184.0858 345.39,183.556 352.4785,192.9361 C357.6435,181.1024 369.0263,181.6681 375.2857,191.7999 C379.5799,183.7223 385.8657,181.9742 392.4327,189.2639 C400.3179,177.4562 409.6412,179.5759 416.0609,190.7694 C420.817,180.7575 428.462,180.8515 434.4232,189.5892 C440.6064,180.179 449.1303,179.5169 454.2318,190.6331 C461.7078,182.1512 469.4305,183.0933 475.6386,192.1782 C481.8301,182.211 491.4149,182.7439 496.4815,193.3196 C502.0142,183.8467 507.7313,183.3237 513.9217,192.7115 C522.3692,184.7625 529.2506,185.9022 535.4274,195.4954 C541.7531,183.9009 549.883,186.5622 556.7023,194.9704 C576.6565,200.6056 578.8428,218.3166 565.6452,231.9656 C579.032,249.3472 578.0041,263.0676 554.3033,269.1313 C548.6656,277.4266 540.5052,275.8264 537.2678,266.7741 C530.3258,276.7963 522.1272,278.6077 515.1057,266.855 C510.5892,275.7695 501.5966,276.5063 495.5149,268.6874 C489.813,277.1715 480.3501,278.4052 475.7531,267.558 C470.3228,279.1458 462.1431,277.9505 454.5715,269.8634 C449.3877,279.2647 442.6569,279.7256 435.8165,271.6403 C429.7843,281.6961 419.5521,280.9727 414.2055,270.9041 C406.4422,280.166 398.4528,277.8827 392.7226,268.5546 C385.9574,277.8767 379.348,276.8441 372.6015,268.5332 C368.5821,276.9795 359.7904,278.2305 354.404,270.0273 C347.198,278.0061 340.8033,279.2998 334.5995,268.9448 C327.6555,280.2863 319.0362,279.1512 311.5733,269.5143 C305.1492,277.5944 297.8292,277.2622 292.9728,267.8475 C288.1483,277.7965 278.4745,278.5054 273.084,268.4091 C255.2905,257.5572 255.6714,246.2905 270.7993,233.2966 C254.1384,222.3097 251.634,206.2192 271.0319,195.4541" fill="none" style="stroke:#181818;stroke-width:1;"/><text fill="#000000" font-family="sans-serif" font-size="14" font-weight="bold" lengthAdjust="spacing" textLength="137.4229" x="343.7886" y="212.5951">External Systems</text></g><!--entity AppService--><g class="entity" data-entity="AppService" data-source-line="4" data-uid="ent0003" id="entity_AppService"><rect fill="#F1F1F1" height="52.5938" rx="2.5" ry="2.5" style="stroke:#181818;stroke-width:0.5;" width="154.415" x="68.79" y="41"/><text fill="#000000" font-family="sans-serif" font-size="14" lengthAdjust="spacing" textLength="134.415" x="78.79" y="63.9951">Application Service</text><text fill="#000000" font-family="sans-serif" font-size="14" lengthAdjust="spacing" textLength="80.0967" x="78.79" y="80.292">(Controller)</text></g><!--entity DomA--><g class="entity" data-entity="DomA" data-source-line="5" data-uid="ent0004" id="entity_DomA"><rect fill="#F1F1F1" height="36.2969" rx="2.5" ry="2.5" style="stroke:#181818;stroke-width:0.5;" width="129.6348" x="31.18" y="221.6"/><text fill="#000000" font-family="sans-serif" font-size="14" lengthAdjust="spacing" textLength="109.6348" x="41.18" y="244.5951">Domain Class A</text></g><!--entity DomB--><g class="entity" data-entity="DomB" data-source-line="6" data-uid="ent0005" id="entity_DomB"><rect fill="#F1F1F1" height="36.2969" rx="2.5" ry="2.5" style="stroke:#181818;stroke-width:0.5;" width="129.6621" x="31.17" y="366.89"/><text fill="#000000" font-family="sans-serif" font-size="14" lengthAdjust="spacing" textLength="109.6621" x="41.17" y="389.8851">Domain Class B</text></g><!--entity SMTP--><g class="entity" data-entity="SMTP" data-source-line="13" data-uid="ent0009" id="entity_SMTP"><rect fill="#F1F1F1" height="36.2969" rx="2.5" ry="2.5" style="stroke:#181818;stroke-width:0.5;" width="108.3203" x="278.84" y="221.6"/><text fill="#000000" font-family="sans-serif" font-size="14" lengthAdjust="spacing" textLength="88.3203" x="288.84" y="244.5951">SMTP Server</text></g><!--entity 3rdParty--><g class="entity" data-entity="3rdParty" data-source-line="14" data-uid="ent0010" id="entity_3rdParty"><rect fill="#F1F1F1" height="36.2969" rx="2.5" ry="2.5" style="stroke:#181818;stroke-width:0.5;" width="123.5576" x="422.22" y="221.6"/><text fill="#000000" font-family="sans-serif" font-size="14" lengthAdjust="spacing" textLength="103.5576" x="432.22" y="244.5951">Third Party API</text></g><!--link AppService to DomA--><g class="link" data-entity-1="AppService" data-entity-2="DomA" data-source-line="8" data-uid="lnk6" id="link_AppService_DomA"><path d="M103.57,93.83 C93.69,102.01 84.47,112 79,123.6 C63.84,155.77 75.1842,192.6204 85.2442,215.9504" fill="none" id="AppService-to-DomA" style="stroke:#181818;stroke-width:1;"/><polygon fill="#181818" points="87.62,221.46,87.7294,211.6118,85.6402,216.8687,80.3833,214.7794,87.62,221.46" style="stroke:#181818;stroke-width:1;"/><text fill="#000000" font-family="sans-serif" font-size="13" lengthAdjust="spacing" textLength="82.1704" x="116.8132" y="136.6669">Intra-system</text><text fill="#000000" font-family="sans-serif" font-size="13" lengthAdjust="spacing" textLength="155.7969" x="80" y="151.7997">(Implementation Detail)</text><text fill="#000000" font-family="sans-serif" font-size="13" lengthAdjust="spacing" textLength="68.3516" x="123.7227" y="166.9325">NO MOCK!</text></g><!--link DomA to DomB--><g class="link" data-entity-1="DomA" data-entity-2="DomB" data-source-line="9" data-uid="lnk7" id="link_DomA_DomB"><path d="M96,258.32 C96,285.97 96,333.31 96,360.77" fill="none" id="DomA-to-DomB" style="stroke:#181818;stroke-width:1;"/><polygon fill="#181818" points="96,366.77,100,357.77,96,361.77,92,357.77,96,366.77" style="stroke:#181818;stroke-width:1;"/><text fill="#000000" font-family="sans-serif" font-size="13" lengthAdjust="spacing" textLength="82.1704" x="133.8132" y="302.9569">Intra-system</text><text fill="#000000" font-family="sans-serif" font-size="13" lengthAdjust="spacing" textLength="155.7969" x="97" y="318.0897">(Implementation Detail)</text><text fill="#000000" font-family="sans-serif" font-size="13" lengthAdjust="spacing" textLength="68.3516" x="140.7227" y="333.2225">NO MOCK!</text></g><!--link AppService to SMTP--><g class="link" data-entity-1="AppService" data-entity-2="SMTP" data-source-line="17" data-uid="lnk11" id="link_AppService_SMTP"><path d="M197.04,93.86 C211.65,102.33 227.09,112.47 240,123.6 C258.1,139.2 295.4061,188.1079 316.4161,216.3179" fill="none" id="AppService-to-SMTP" style="stroke:#181818;stroke-width:1;"/><polygon fill="#181818" points="320,221.13,317.8322,211.5227,317.0134,217.12,311.4162,216.3012,320,221.13" style="stroke:#181818;stroke-width:1;"/><text fill="#000000" font-family="sans-serif" font-size="13" lengthAdjust="spacing" textLength="82.2021" x="313.9604" y="136.6669">Inter-system</text><text fill="#000000" font-family="sans-serif" font-size="13" lengthAdjust="spacing" textLength="146.123" x="282" y="151.7997">(Observable Behavior)</text><text fill="#000000" font-family="sans-serif" font-size="13" lengthAdjust="spacing" textLength="69.1641" x="320.4795" y="166.9325">USE MOCK</text></g><!--link AppService to 3rdParty--><g class="link" data-entity-1="AppService" data-entity-2="3rdParty" data-source-line="18" data-uid="lnk12" id="link_AppService_3rdParty"><path d="M223.63,74.82 C298.19,82.51 404.07,97.66 436,123.6 C466.43,148.31 476.8783,189.7144 480.9483,215.3244" fill="none" id="AppService-to-3rdParty" style="stroke:#181818;stroke-width:1;"/><polygon fill="#181818" points="481.89,221.25,484.4279,211.7337,481.1052,216.312,476.527,212.9894,481.89,221.25" style="stroke:#181818;stroke-width:1;"/><text fill="#000000" font-family="sans-serif" font-size="13" lengthAdjust="spacing" textLength="82.2021" x="499.9604" y="136.6669">Inter-system</text><text fill="#000000" font-family="sans-serif" font-size="13" lengthAdjust="spacing" textLength="146.123" x="468" y="151.7997">(Observable Behavior)</text><text fill="#000000" font-family="sans-serif" font-size="13" lengthAdjust="spacing" textLength="69.1641" x="506.4795" y="166.9325">USE MOCK</text></g><!--SRC=[dP4_Ry8m4CNtV8fh9XYOkdMeb01IKKKJANIeIeV3EO65_qHdWq1LltlD0QL2NQW7Ixxdz_ExSrXhro6Z1ULjvnsvsCIz8M1I4TtIK9PrgDQu9CZV_8QXw3gZ5KRj7VIUQ8TBx_evV6QGrljljI7UQaLprnjw5zaRGzp_00m7naaykaRUedOmD1YIA5TIgVX3BCzYAQ9i5neC1e_YX0UOf2Tn4FOXaaqH9hOpP5DxnsmZYgXDV-vUAfXMm-Sx8Odrn2Z_mVZACcNyfeLyl8l43WqqOWu_0sgcirecGooj7Cv7PRRIt4AD7FTGr1DHxxcLme5yrQQ092Bn9MAr2EaEBj8FbhJ2hVQS0husOqbupJZZR-Py0m00]--></g></svg>